<svg width="55" height="55" viewBox="0 0 55 55" fill="none" xmlns="http://www.w3.org/2000/svg">
<g clip-path="url(#clip0)">
<path d="M43.5417 27.5C43.5417 32.45 41.2958 37.0333 37.4229 40.1041C35.8417 41.3416 34.8104 42.9687 34.4896 44.7104C34.4437 44.6875 34.4208 44.6875 34.375 44.6875H20.625C20.5792 44.6875 20.5104 44.6875 20.4646 44.7104C20.1437 42.9 19.2042 41.3187 17.8521 40.3104C12.8562 36.5291 10.5187 30.3416 11.8021 24.1083C13.0625 18.0354 17.9896 13.0854 24.0625 11.825C28.8979 10.7937 33.8479 11.9854 37.6062 15.0333C41.3875 18.1041 43.5417 22.6416 43.5417 27.5Z" fill="#FFC107"/>
<path d="M34.4896 44.7104C34.4209 45.1 34.375 45.4896 34.375 45.9021V50.9896C34.375 53.1896 32.5646 55 30.3646 55H24.6355C22.7105 55 20.6251 53.5333 20.6251 50.325V46.2688C20.6251 45.7417 20.5792 45.2146 20.4647 44.7104C20.5105 44.6875 20.5792 44.6875 20.6251 44.6875H34.375C34.4209 44.6875 34.4438 44.6875 34.4896 44.7104Z" fill="#607D8B"/>
<path d="M32.6562 48.125H22.3438C21.395 48.125 20.625 47.355 20.625 46.4062C20.625 45.4575 21.395 44.6875 22.3438 44.6875H32.6562C33.605 44.6875 34.375 45.4575 34.375 46.4062C34.375 47.355 33.605 48.125 32.6562 48.125Z" fill="black"/>
<path d="M27.5 7.92227C26.5513 7.92227 25.7812 7.15227 25.7812 6.20352V1.71873C25.7812 0.769981 26.5513 -1.90735e-05 27.5 -1.90735e-05C28.4488 -1.90735e-05 29.2188 0.769981 29.2188 1.71873V6.20352C29.2188 7.15227 28.4488 7.92227 27.5 7.92227Z" fill="black"/>
<path d="M42.5586 14.1602C42.1186 14.1602 41.6786 13.9929 41.344 13.656C40.6726 12.9846 40.6726 11.896 41.344 11.2246L44.5157 8.05292C45.1872 7.38146 46.2757 7.38146 46.9472 8.05292C47.6186 8.72437 47.6186 9.81291 46.9472 10.4844L43.7755 13.656C43.4386 13.9906 42.9986 14.1602 42.5586 14.1602Z" fill="black"/>
<path d="M53.2812 29.2188H48.7964C47.8476 29.2188 47.0776 28.4488 47.0776 27.5C47.0776 26.5513 47.8476 25.7812 48.7964 25.7812H53.2812C54.2299 25.7812 54.9999 26.5513 54.9999 27.5C54.9999 28.4488 54.2299 29.2188 53.2812 29.2188Z" fill="black"/>
<path d="M45.7303 47.4489C45.2903 47.4489 44.8503 47.2817 44.5157 46.9448L41.344 43.7731C40.6726 43.1017 40.6726 42.0131 41.344 41.3417C42.0155 40.6702 43.104 40.6702 43.7755 41.3417L46.9472 44.5133C47.6186 45.1848 47.6186 46.2733 46.9472 46.9448C46.6103 47.2817 46.1703 47.4489 45.7303 47.4489Z" fill="black"/>
<path d="M9.26975 47.4489C8.82975 47.4489 8.38975 47.2817 8.05517 46.9448C7.38371 46.2733 7.38371 45.1848 8.05517 44.5133L11.2268 41.3417C11.8983 40.6702 12.9868 40.6702 13.6583 41.3417C14.3297 42.0131 14.3297 43.1017 13.6583 43.7731L10.4866 46.9448C10.1497 47.2817 9.70975 47.4489 9.26975 47.4489Z" fill="black"/>
<path d="M6.20354 29.2188H1.71875C0.77 29.2188 0 28.4488 0 27.5C0 26.5513 0.77 25.7812 1.71875 25.7812H6.20354C7.15229 25.7812 7.92229 26.5513 7.92229 27.5C7.92229 28.4488 7.15229 29.2188 6.20354 29.2188Z" fill="black"/>
<path d="M12.4414 14.1602C12.0014 14.1602 11.5614 13.9929 11.2268 13.656L8.05517 10.4844C7.38371 9.81291 7.38371 8.72437 8.05517 8.05292C8.72662 7.38146 9.81516 7.38146 10.4866 8.05292L13.6583 11.2246C14.3297 11.896 14.3297 12.9846 13.6583 13.656C13.3191 13.9906 12.8814 14.1602 12.4414 14.1602Z" fill="black"/>
<path d="M36.0938 28.6458C35.1451 28.6458 34.3751 27.8758 34.3751 26.9271C34.3751 23.4506 31.5494 20.625 28.073 20.625C27.1242 20.625 26.3542 19.855 26.3542 18.9062C26.3542 17.9575 27.1242 17.1875 28.073 17.1875C33.4423 17.1875 37.8125 21.5577 37.8125 26.9271C37.8125 27.8758 37.0425 28.6458 36.0938 28.6458Z" fill="black"/>
<path d="M30.3647 55H24.6355C22.7036 55 20.6251 53.5333 20.6251 50.3158V46.2733C20.6251 43.8419 19.5892 41.6098 17.8544 40.3035C12.8472 36.5337 10.5303 30.3325 11.8067 24.1198C13.0557 18.0331 17.9805 13.09 24.0603 11.8181C28.8957 10.8006 33.8411 11.9785 37.6132 15.0448C41.3807 18.1064 43.5417 22.6462 43.5417 27.5C43.5417 32.4454 41.3074 37.0356 37.4115 40.0996C35.4819 41.6166 34.3751 43.7296 34.3751 45.8952V50.9896C34.3751 53.201 32.5761 55 30.3647 55ZM27.468 14.9004C26.5697 14.9004 25.6644 14.9944 24.7592 15.1823C20.0017 16.1769 16.1494 20.0452 15.1709 24.8096C14.1649 29.7069 15.9844 34.5927 19.9192 37.5558C22.5111 39.5083 24.0603 42.7671 24.0603 46.2733V50.3158C24.0603 50.5244 24.0878 51.5625 24.6332 51.5625H30.3624C30.6786 51.5625 30.9353 51.3058 30.9353 50.9896V45.8952C30.9353 42.6662 32.5211 39.5702 35.2849 37.3954C38.3488 34.9892 40.1042 31.3821 40.1042 27.5C40.1042 23.6866 38.4038 20.1185 35.443 17.7123C33.1788 15.8744 30.3715 14.9004 27.468 14.9004Z" fill="black"/>
</g>
<defs>
<clipPath id="clip0">
<rect width="55" height="55" fill="white"/>
</clipPath>
</defs>
</svg>
