<svg width="55" height="55" viewBox="0 0 55 55" fill="none" xmlns="http://www.w3.org/2000/svg">
<path d="M34.4896 44.7104C34.4209 45.1 34.375 45.4896 34.375 45.9021V50.9896C34.375 53.1896 32.5646 55 30.3646 55H24.6355C22.7105 55 20.6251 53.5333 20.6251 50.325V46.2688C20.6251 45.7417 20.5792 45.2146 20.4647 44.7104C20.5105 44.6875 20.5792 44.6875 20.6251 44.6875H34.375C34.4209 44.6875 34.4438 44.6875 34.4896 44.7104Z" fill="#607D8B"/>
<path d="M32.6562 48.125H22.3438C21.395 48.125 20.625 47.355 20.625 46.4062C20.625 45.4575 21.395 44.6875 22.3438 44.6875H32.6562C33.605 44.6875 34.375 45.4575 34.375 46.4062C34.375 47.355 33.605 48.125 32.6562 48.125Z" fill="black"/>
<path d="M36.0938 28.6458C35.1451 28.6458 34.3751 27.8758 34.3751 26.9271C34.3751 23.4506 31.5494 20.625 28.073 20.625C27.1242 20.625 26.3542 19.855 26.3542 18.9062C26.3542 17.9575 27.1242 17.1875 28.073 17.1875C33.4423 17.1875 37.8125 21.5577 37.8125 26.9271C37.8125 27.8758 37.0425 28.6458 36.0938 28.6458Z" fill="black"/>
<path d="M30.3647 55H24.6355C22.7036 55 20.6251 53.5333 20.6251 50.3158V46.2733C20.6251 43.8419 19.5892 41.6098 17.8544 40.3035C12.8472 36.5337 10.5303 30.3325 11.8067 24.1198C13.0557 18.0331 17.9805 13.09 24.0603 11.8181C28.8957 10.8006 33.8411 11.9785 37.6132 15.0448C41.3807 18.1064 43.5417 22.6462 43.5417 27.5C43.5417 32.4454 41.3074 37.0356 37.4115 40.0996C35.4819 41.6166 34.3751 43.7296 34.3751 45.8952V50.9896C34.3751 53.201 32.5761 55 30.3647 55ZM27.468 14.9004C26.5697 14.9004 25.6644 14.9944 24.7592 15.1823C20.0017 16.1769 16.1494 20.0452 15.1709 24.8096C14.1649 29.7069 15.9844 34.5927 19.9192 37.5558C22.5111 39.5083 24.0603 42.7671 24.0603 46.2733V50.3158C24.0603 50.5244 24.0878 51.5625 24.6332 51.5625H30.3624C30.6786 51.5625 30.9353 51.3058 30.9353 50.9896V45.8952C30.9353 42.6662 32.5211 39.5702 35.2849 37.3954C38.3488 34.9892 40.1042 31.3821 40.1042 27.5C40.1042 23.6866 38.4038 20.1185 35.443 17.7123C33.1788 15.8744 30.3715 14.9004 27.468 14.9004Z" fill="black"/>
</svg>
